<svg xmlns="http://www.w3.org/2000/svg" viewBox="1235 4488 50 50">
  <defs>
    <style>
      .cls-1 {
        fill: #cf4c3c;
      }

      .cls-2 {
        fill: #ad3228;
      }

      .cls-3 {
        fill: #fff;
      }

      .cls-4 {
        fill: #d1d1d1;
      }
    </style>
  </defs>
  <g id="_001-google-plus" data-name="001-google-plus" transform="translate(1235 4488)">
    <circle id="Ellipse_25" data-name="Ellipse 25" class="cls-1" cx="25" cy="25" r="25"/>
    <path id="Path_72" data-name="Path 72" class="cls-2" d="M157.54,190.623l-3.567,4.291-6.715-6.984H137.98L134.225,192v8.78l18.03,18.041a25.05,25.05,0,0,0,17.472-16Z" transform="translate(-121.117 -169.577)"/>
    <path id="Path_73" data-name="Path 73" class="cls-3" d="M119.511,173.289h4.472a5.685,5.685,0,1,1-1.543-6.1.616.616,0,0,0,.838,0l1.642-1.545a.614.614,0,0,0,0-.893,9.119,9.119,0,0,0-6.113-2.507,9.156,9.156,0,1,0,8.959,9.669c.007-.06.012-2.1.012-2.1h-8.268a.613.613,0,0,0-.613.613v2.248a.613.613,0,0,0,.613.613Z" transform="translate(-98.779 -146.4)"/>
    <path id="Path_74" data-name="Path 74" class="cls-4" d="M322.244,216.58v-2.2a.537.537,0,0,0-.538-.537h-1.849a.537.537,0,0,0-.538.537v2.2h-2.2a.538.538,0,0,0-.538.538v1.849a.538.538,0,0,0,.538.538h2.2v2.2a.538.538,0,0,0,.538.538h1.849a.538.538,0,0,0,.538-.538v-2.2h2.2a.538.538,0,0,0,.538-.538v-1.849a.538.538,0,0,0-.538-.538Z" transform="translate(-285.668 -192.963)"/>
  </g>
</svg>
