<svg xmlns="http://www.w3.org/2000/svg" viewBox="1299 4488 50 50">
  <defs>
    <style>
      .cls-1 {
        fill: #65a2d9;
      }

      .cls-2 {
        fill: #3a7ca5;
      }

      .cls-3 {
        fill: #fff;
      }

      .cls-4 {
        fill: #d1d1d1;
      }
    </style>
  </defs>
  <g id="_002-twitter" data-name="002-twitter" transform="translate(1299 4488)">
    <circle id="Ellipse_26" data-name="Ellipse 26" class="cls-1" cx="25" cy="25" r="25"/>
    <path id="Path_75" data-name="Path 75" class="cls-2" d="M138.246,139.326c-2.608,2.263-5.2,4.246-7.32,7.017-5.213,6.286-11.583,15.205-20.253,13.876l15.489,15.468a25,25,0,0,0,23.7-24.744Z" transform="translate(-99.866 -125.72)"/>
    <path id="Path_76" data-name="Path 76" class="cls-3" d="M137.63,136.883a11.312,11.312,0,0,1-1.973.666,6.15,6.15,0,0,0,1.624-2.586.323.323,0,0,0-.472-.376,11.384,11.384,0,0,1-3.017,1.246.764.764,0,0,1-.188.023.8.8,0,0,1-.528-.2,6.169,6.169,0,0,0-4.083-1.541,6.594,6.594,0,0,0-1.955.3,5.978,5.978,0,0,0-4.029,4.307,6.582,6.582,0,0,0-.146,2.272.221.221,0,0,1-.056.173.229.229,0,0,1-.17.077h-.022A16.178,16.178,0,0,1,111.5,135.3a.323.323,0,0,0-.529.041,6.178,6.178,0,0,0,1,7.5,5.531,5.531,0,0,1-1.408-.545.323.323,0,0,0-.479.278,6.179,6.179,0,0,0,3.6,5.692h-.132a5.524,5.524,0,0,1-1.04-.1.323.323,0,0,0-.368.415,6.183,6.183,0,0,0,4.885,4.206,11.386,11.386,0,0,1-6.377,1.937h-.713a.472.472,0,0,0-.462.356.489.489,0,0,0,.234.54,16.934,16.934,0,0,0,8.51,2.294,17.162,17.162,0,0,0,7.272-1.543,16.058,16.058,0,0,0,5.321-3.987,17.478,17.478,0,0,0,3.258-5.457,17.239,17.239,0,0,0,1.107-5.972v-.094a1.051,1.051,0,0,1,.393-.817,12.2,12.2,0,0,0,2.453-2.693.323.323,0,0,0-.4-.474Z" transform="translate(-98.776 -121.017)"/>
    <path id="Path_77" data-name="Path 77" class="cls-4" d="M269.335,136.883a11.317,11.317,0,0,1-1.973.666,6.152,6.152,0,0,0,1.624-2.586.323.323,0,0,0-.472-.376,11.384,11.384,0,0,1-3.017,1.246.764.764,0,0,1-.188.023.8.8,0,0,1-.528-.2,6.169,6.169,0,0,0-4.083-1.541,6.6,6.6,0,0,0-1.955.3,5.978,5.978,0,0,0-3.319,2.592v20.066a15.987,15.987,0,0,0,7.1-4.684,17.479,17.479,0,0,0,3.258-5.457,17.239,17.239,0,0,0,1.107-5.972v-.094a1.051,1.051,0,0,1,.393-.817,12.2,12.2,0,0,0,2.453-2.693A.323.323,0,0,0,269.335,136.883Z" transform="translate(-230.48 -121.017)"/>
  </g>
</svg>
