<svg xmlns="http://www.w3.org/2000/svg" viewBox="1363 4488 50 50">
  <defs>
    <style>
      .cls-1 {
        fill: #d22215;
      }

      .cls-2 {
        fill: #a81411;
      }

      .cls-3 {
        fill: #fff;
      }

      .cls-4 {
        fill: #d1d1d1;
      }
    </style>
  </defs>
  <g id="_003-youtube" data-name="003-youtube" transform="translate(1363 4488)">
    <circle id="Ellipse_23" data-name="Ellipse 23" class="cls-1" cx="25" cy="25" r="25"/>
    <path id="Path_65" data-name="Path 65" class="cls-2" d="M153.667,170.339c-.75.229-1.531.425-2.314.621-5.556,1.178-12.963-2.02-16.162,3.2-2.668,4.15-3.51,9.343-6.545,13.053l16.209,16.209A25.017,25.017,0,0,0,165.8,182.473Z" transform="translate(-116.083 -153.704)"/>
    <path id="Path_66" data-name="Path 66" class="cls-3" d="M132.17,152.333H115.442a5.943,5.943,0,0,0-5.943,5.943v8.362a5.943,5.943,0,0,0,5.943,5.943H132.17a5.943,5.943,0,0,0,5.943-5.943v-8.362a5.943,5.943,0,0,0-5.943-5.943Zm-4.019,10.531-7.824,3.732a.314.314,0,0,1-.45-.283v-7.7a.314.314,0,0,1,.456-.28l7.824,3.965a.314.314,0,0,1-.007.564Z" transform="translate(-98.806 -137.457)"/>
    <path id="Path_67" data-name="Path 67" class="cls-4" d="M262.808,152.333h-8.533v7.676l4.52,2.29a.314.314,0,0,1-.007.564l-4.513,2.153v7.564h8.533a5.943,5.943,0,0,0,5.943-5.943v-8.362A5.943,5.943,0,0,0,262.808,152.333Z" transform="translate(-229.444 -137.457)"/>
  </g>
</svg>
