<svg xmlns="http://www.w3.org/2000/svg" viewBox="1426.999 4488 50 50">
  <defs>
    <style>
      .cls-1 {
        fill: #4e598f;
      }

      .cls-2 {
        fill: #364270;
      }

      .cls-3 {
        fill: #fff;
      }

      .cls-4 {
        fill: #d1d1d1;
      }
    </style>
  </defs>
  <g id="_004-facebook" data-name="004-facebook" transform="translate(1426.998 4488)">
    <ellipse id="Ellipse_24" data-name="Ellipse 24" class="cls-1" cx="25" cy="25" rx="25" ry="25" transform="translate(0.001)"/>
    <path id="Path_68" data-name="Path 68" class="cls-2" d="M158.919,131.664l-11.775-11.779c-.2.059-.682-.167-.9-.124-5.05.842-9.933,0-14.815,1.347-2.357.673-2.525,3.535-3.367,5.387-1.178,3.367-1.01,7.071-2.525,10.269-1.01,2.189-3.367,3.535-4.209,6.061-.281,1.053-.264,2.381-.582,3.388l11.814,11.809c.461.025.926.039,1.393.039a25,25,0,0,0,25-25C158.959,132.592,158.945,132.126,158.919,131.664Z" transform="translate(-108.958 -108.06)"/>
    <g id="Group_23" data-name="Group 23" transform="translate(10.691 10.69)">
      <path id="Path_69" data-name="Path 69" class="cls-3" d="M134.231,109.466H113.324a3.856,3.856,0,0,0-3.856,3.856v20.907a3.856,3.856,0,0,0,3.856,3.856h10.311l.018-10.227H121a.627.627,0,0,1-.627-.625l-.013-3.3a.627.627,0,0,1,.627-.629h2.653v-3.185c0-3.7,2.258-5.709,5.555-5.709H131.9a.627.627,0,0,1,.627.627v2.78a.627.627,0,0,1-.627.627h-1.661c-1.793,0-2.141.852-2.141,2.1v2.758h3.941a.627.627,0,0,1,.623.7l-.391,3.3a.627.627,0,0,1-.623.553h-3.532l-.018,10.227h6.135a3.857,3.857,0,0,0,3.856-3.857V113.322a3.856,3.856,0,0,0-3.856-3.856Z" transform="translate(-109.468 -109.466)"/>
      <path id="Path_70" data-name="Path 70" class="cls-3" d="M254.3,308.035l.018-10.227h-.044v10.227Z" transform="translate(-240.135 -279.415)"/>
    </g>
    <path id="Path_71" data-name="Path 71" class="cls-4" d="M264.9,109.466H254.277v13.842h.026v-3.185c0-3.7,2.258-5.709,5.555-5.709h2.706a.627.627,0,0,1,.627.627v2.78a.627.627,0,0,1-.627.627H260.9c-1.793,0-2.141.852-2.141,2.1v2.758H262.7a.627.627,0,0,1,.623.7l-.391,3.3a.627.627,0,0,1-.623.553h-3.532l-.018,10.227H264.9a3.857,3.857,0,0,0,3.856-3.857V113.322A3.856,3.856,0,0,0,264.9,109.466Z" transform="translate(-229.444 -98.776)"/>
  </g>
</svg>
